# xmcd
#
# Track frame offsets:
#	150
#	12693
#	24372
#	35904
#	46139
#	58913
#	68449
#	79927
#	91694
#	102703
#	113405
#	124218
#	133523
#	146337
#	158620
#	170626
#	181339
#	190636
#	214331
#	224564
#	233148
#	244249
#	255356
#	264770
#	278146
#	292406
#	302306
#	315378
#	327712
#
# Disc length: 4515 seconds
#
# Revision: 1
# Processed by: cddbd v1.5.2PL0 Copyright (c) Steve Scherf et al.
# Submitted via: audiograbber 1.83.01
#
DISCID=a411a11d
DTITLE=Mac Wiseman - On Susan's Floor [1965-1979] CD3
DYEAR=2006
DGENRE=Country
TTITLE0=A Maiden's Prayer
TTITLE1=Just A Baby's Prayer At Twilight
TTITLE2=At The Rainbow's End
TTITLE3=Lonely City Park
TTITLE4=This Is Where I Came In
TTITLE5=Me And My Memory
TTITLE6=The Isle Of Capri
TTITLE7=Forever And Ever
TTITLE8=Got Leavin' On Her Mind
TTITLE9=She Simply Left
TTITLE10=The Things You Have Turned To
TTITLE11=Johnny's Cash And Charley's Pride
TTITLE12=Mama, Put Your Little Shoes Away
TTITLE13=Crystal Chandelie
TTITLE14=All I Have To Offer You (Is Me)
TTITLE15=Wrinkled, Crinkled, Wadded Dollar Bill
TTITLE16=Ring Of Fire
TTITLE17=Me And Bobby McGee
TTITLE18=Ballad Of A Teenage Queen
TTITLE19=Guess Things Happen That Way
TTITLE20=The Day The World Stood Still
TTITLE21=The Easy Part's Over
TTITLE22=Big River
TTITLE23=The Little Folks
TTITLE24=Sweet Sadness
TTITLE25=I'll Still Write Your Name In The Sand
TTITLE26=I'd Rather Live By The Side Of The Road
TTITLE27=Sing Little Birdie
TTITLE28=Colours
EXTD=
EXTT0=
EXTT1=
EXTT2=
EXTT3=
EXTT4=
EXTT5=
EXTT6=
EXTT7=
EXTT8=
EXTT9=
EXTT10=
EXTT11=
EXTT12=
EXTT13=
EXTT14=
EXTT15=
EXTT16=
EXTT17=
EXTT18=
EXTT19=
EXTT20=
EXTT21=
EXTT22=
EXTT23=
EXTT24=
EXTT25=
EXTT26=
EXTT27=
EXTT28=
PLAYORDER=
